<svg xmlns="http://www.w3.org/2000/svg" viewBox="0 0 267 303" fill="#5b5bd6">
  <path d="M 139 91 L 139 93 L 141 97 L 143 99 L 143 100 L 153 110 L 154 110 L 156 112 L 164 116 L 166 116 L 167 117 L 170 117 L 171 118 L 174 118 L 175 119 L 179 119 L 184 116 L 186 116 L 191 113 L 193 113 L 198 110 L 200 110 L 212 104 L 214 105 L 215 108 L 218 111 L 219 113 L 220 113 L 222 115 L 226 117 L 228 117 L 229 118 L 241 118 L 249 114 L 254 109 L 257 103 L 257 100 L 258 99 L 258 92 L 257 91 L 257 88 L 255 84 L 249 77 L 241 73 L 229 73 L 228 74 L 226 74 L 222 76 L 216 82 L 213 88 L 212 95 L 211 96 L 204 96 L 203 95 L 199 95 L 198 94 L 195 94 L 194 93 L 189 92 L 181 88 L 179 86 L 175 84 L 160 69 L 160 68 L 158 66 L 154 66 L 153 67 L 153 68 L 151 70 L 150 73 L 148 75 L 147 78 L 145 80 L 143 85 L 141 87 Z"/>
  <path d="M 8 201 L 8 213 L 9 214 L 9 216 L 10 218 L 16 225 L 24 229 L 37 229 L 43 226 L 48 222 L 53 212 L 61 212 L 62 213 L 68 213 L 69 214 L 73 214 L 74 215 L 79 216 L 89 221 L 91 223 L 92 223 L 97 228 L 98 228 L 107 237 L 107 238 L 111 241 L 113 241 L 115 239 L 119 231 L 121 229 L 122 226 L 124 224 L 125 221 L 128 217 L 128 213 L 127 211 L 124 208 L 124 207 L 117 200 L 116 200 L 113 197 L 105 193 L 103 193 L 99 191 L 82 191 L 76 194 L 74 194 L 71 196 L 69 196 L 66 198 L 64 198 L 61 200 L 59 200 L 58 201 L 56 201 L 54 202 L 52 200 L 52 198 L 49 194 L 49 193 L 45 189 L 44 189 L 42 187 L 38 185 L 35 185 L 34 184 L 28 184 L 27 185 L 23 185 L 17 188 L 12 193 Z"/>
  <path d="M 186 131 L 183 135 L 183 137 L 182 138 L 182 141 L 181 142 L 181 160 L 182 161 L 182 163 L 181 164 L 181 171 L 182 173 L 187 177 L 192 179 L 194 181 L 200 184 L 202 186 L 203 186 L 205 188 L 206 188 L 208 190 L 209 190 L 211 192 L 212 192 L 216 195 L 214 199 L 214 201 L 213 202 L 213 211 L 214 212 L 214 215 L 216 219 L 219 222 L 219 223 L 220 223 L 223 226 L 227 228 L 229 228 L 230 229 L 241 229 L 242 228 L 244 228 L 248 226 L 255 219 L 257 215 L 257 213 L 258 212 L 258 201 L 257 200 L 257 198 L 255 194 L 249 188 L 248 188 L 246 186 L 244 186 L 240 184 L 231 184 L 227 186 L 223 186 L 220 182 L 218 178 L 218 176 L 216 173 L 216 171 L 215 170 L 215 167 L 214 166 L 214 160 L 213 159 L 213 152 L 214 151 L 214 145 L 215 144 L 215 141 L 216 140 L 216 138 L 217 137 L 217 135 L 218 134 L 218 132 L 219 130 L 212 124 L 210 123 L 207 123 L 199 127 L 197 127 L 194 129 L 192 129 L 191 130 Z"/>
  <path d="M 18 76 L 11 83 L 8 89 L 8 103 L 11 109 L 18 116 L 20 117 L 22 117 L 23 118 L 25 118 L 26 119 L 34 119 L 35 118 L 38 118 L 39 117 L 41 117 L 47 125 L 49 129 L 49 131 L 51 134 L 52 139 L 53 140 L 53 146 L 54 147 L 54 157 L 53 158 L 53 162 L 52 163 L 52 166 L 51 167 L 51 169 L 49 173 L 49 176 L 51 177 L 55 181 L 59 183 L 62 181 L 64 181 L 65 180 L 70 179 L 73 177 L 75 177 L 76 176 L 79 176 L 81 175 L 84 171 L 84 169 L 85 168 L 85 165 L 86 164 L 86 146 L 85 145 L 85 143 L 84 142 L 83 137 L 80 133 L 79 130 L 78 130 L 75 127 L 74 127 L 72 125 L 71 125 L 69 123 L 65 121 L 62 118 L 61 118 L 59 116 L 58 116 L 56 114 L 52 112 L 49 109 L 52 103 L 52 100 L 53 99 L 53 93 L 52 92 L 52 89 L 49 83 L 42 76 L 40 75 L 38 75 L 37 74 L 35 74 L 34 73 L 27 73 L 26 74 L 23 74 L 22 75 L 20 75 Z"/>
  <path d="M 146 11 L 142 9 L 140 9 L 139 8 L 130 8 L 129 9 L 126 9 L 122 11 L 115 18 L 113 22 L 113 24 L 112 25 L 112 36 L 113 37 L 113 39 L 115 43 L 121 50 L 121 52 L 120 54 L 115 60 L 115 61 L 112 64 L 112 65 L 97 80 L 96 80 L 91 84 L 88 85 L 86 87 L 82 89 L 80 89 L 77 91 L 75 91 L 74 92 L 72 92 L 68 94 L 66 98 L 67 99 L 67 101 L 73 106 L 74 106 L 78 110 L 79 110 L 89 119 L 93 119 L 94 118 L 96 118 L 97 117 L 99 117 L 103 115 L 105 113 L 109 111 L 114 106 L 114 105 L 119 99 L 123 91 L 123 89 L 124 88 L 124 85 L 125 84 L 125 81 L 126 80 L 126 75 L 127 74 L 127 69 L 128 68 L 128 63 L 129 62 L 129 56 L 131 54 L 135 54 L 136 53 L 140 53 L 141 52 L 143 52 L 147 50 L 153 44 L 155 40 L 155 38 L 156 37 L 156 32 L 157 31 L 156 30 L 156 24 L 152 16 Z"/>
  <path d="M 178 187 L 175 187 L 174 188 L 172 188 L 166 191 L 164 193 L 161 194 L 151 203 L 151 204 L 148 207 L 148 208 L 146 210 L 144 214 L 144 221 L 143 222 L 143 234 L 142 235 L 142 247 L 140 249 L 133 249 L 132 250 L 129 250 L 127 251 L 125 253 L 124 253 L 119 258 L 116 264 L 116 266 L 115 267 L 115 276 L 116 277 L 116 280 L 118 284 L 121 287 L 121 288 L 123 290 L 124 290 L 128 293 L 130 293 L 131 294 L 144 294 L 150 291 L 157 284 L 158 282 L 158 280 L 159 279 L 159 277 L 160 276 L 160 267 L 159 266 L 158 261 L 156 259 L 156 258 L 151 253 L 154 246 L 156 244 L 158 240 L 161 237 L 161 236 L 169 228 L 170 228 L 173 225 L 174 225 L 176 223 L 188 217 L 190 217 L 193 215 L 195 215 L 200 212 L 200 205 L 196 201 L 195 201 L 192 198 L 191 198 L 188 195 L 187 195 L 180 188 Z"/>
  <path d="M 135 130 L 133 131 L 128 131 L 120 135 L 116 139 L 113 145 L 113 147 L 112 148 L 112 159 L 113 160 L 113 162 L 115 166 L 121 172 L 127 175 L 130 175 L 131 176 L 137 176 L 138 175 L 141 175 L 147 172 L 153 166 L 155 162 L 155 160 L 156 159 L 156 147 L 155 146 L 155 144 L 153 140 L 147 134 L 143 132 L 141 132 L 140 131 L 136 131 Z"/>
</svg>
